<svg width="575" height="591" viewBox="0 0 575 591" fill="none" xmlns="http://www.w3.org/2000/svg">
<path d="M428.641 457.826C382.861 506.559 354.59 573.683 311.971 587.398C268.96 601.03 211.684 560.86 164.615 524.856C117.464 489.245 80.9132 457.883 64.3364 419.182C47.6781 380.873 50.5189 335.538 36.3879 285.042C21.9454 234.072 -9.94367 178.254 3.76544 143.783C17.163 108.838 76.2403 94.8464 126.756 66.7782C177.664 38.7914 220.485 -3.58375 258.485 1.01626C296.404 6.00941 330.288 58.1408 379.582 91.3256C429.269 124.592 494.841 138.6 534.167 178.329C573.493 218.057 586.967 283.588 561.904 331.286C537.315 378.672 474.027 409.012 428.641 457.826Z" fill="#3A3A3A"/>
</svg>
