<svg width="40" height="40" viewBox="0 0 40 40" fill="none" xmlns="http://www.w3.org/2000/svg">
<path d="M35 16.6667H5M26.6667 3.33333V10M13.3333 3.33333V10M17.5 23.3333L20 21.6667V30M17.9167 30H22.0833M13 36.6667H27C29.8003 36.6667 31.2004 36.6667 32.27 36.1217C33.2108 35.6423 33.9757 34.8774 34.455 33.9366C35 32.8671 35 31.4669 35 28.6667V14.6667C35 11.8664 35 10.4663 34.455 9.39671C33.9757 8.4559 33.2108 7.691 32.27 7.21163C31.2004 6.66666 29.8003 6.66666 27 6.66666H13C10.1997 6.66666 8.79961 6.66666 7.73005 7.21163C6.78924 7.691 6.02433 8.4559 5.54497 9.39671C5 10.4663 5 11.8664 5 14.6667V28.6667C5 31.4669 5 32.8671 5.54497 33.9366C6.02433 34.8774 6.78924 35.6423 7.73005 36.1217C8.79961 36.6667 10.1997 36.6667 13 36.6667Z" stroke="#838383" stroke-width="3" stroke-linecap="round" stroke-linejoin="round"/>
</svg>
