<svg width="30" height="24" viewBox="0 0 30 24" fill="none" xmlns="http://www.w3.org/2000/svg">
<path d="M24.9166 0.666687H5.08325C3.95608 0.666687 2.87508 1.11445 2.07805 1.91148C1.28102 2.70851 0.833252 3.78952 0.833252 4.91669V19.0834C0.833252 20.2105 1.28102 21.2915 2.07805 22.0886C2.87508 22.8856 3.95608 23.3334 5.08325 23.3334H24.9166C26.0438 23.3334 27.1248 22.8856 27.9218 22.0886C28.7188 21.2915 29.1666 20.2105 29.1666 19.0834V4.91669C29.1666 3.78952 28.7188 2.70851 27.9218 1.91148C27.1248 1.11445 26.0438 0.666687 24.9166 0.666687ZM23.9674 3.50002L14.9999 10.2292L6.03242 3.50002H23.9674ZM24.9166 20.5H5.08325C4.70753 20.5 4.34719 20.3508 4.08152 20.0851C3.81584 19.8194 3.66658 19.4591 3.66658 19.0834V5.27085L14.1499 13.1334C14.3951 13.3173 14.6934 13.4167 14.9999 13.4167C15.3064 13.4167 15.6047 13.3173 15.8499 13.1334L26.3332 5.27085V19.0834C26.3332 19.4591 26.184 19.8194 25.9183 20.0851C25.6526 20.3508 25.2923 20.5 24.9166 20.5Z" fill="#838383"/>
</svg>
