<svg width="265" height="71" viewBox="0 0 265 71" fill="none" xmlns="http://www.w3.org/2000/svg">
<path d="M4.79403 14.3636V13.3636H3.79403V14.3636H4.79403ZM12.7841 14.3636L13.7095 13.9846L13.4552 13.3636H12.7841V14.3636ZM26.6761 48.2841L25.7507 48.6631L26.0051 49.2841H26.6761V48.2841ZM27.1875 48.2841V49.2841H27.8586L28.1129 48.6631L27.1875 48.2841ZM41.0795 14.3636V13.3636H40.4085L40.1541 13.9846L41.0795 14.3636ZM49.0696 14.3636H50.0696V13.3636H49.0696V14.3636ZM49.0696 58V59H50.0696V58H49.0696ZM42.8054 58H41.8054V59H42.8054V58ZM42.8054 26.4233H43.8054V25.4233H42.8054V26.4233ZM42.4006 26.4233V25.4233H41.7288L41.4748 26.0452L42.4006 26.4233ZM29.5312 57.9361V58.9361H30.203L30.457 58.3142L29.5312 57.9361ZM24.3324 57.9361L23.4065 58.3139L23.6604 58.9361H24.3324V57.9361ZM11.4631 26.402L12.3889 26.0241L12.135 25.402H11.4631V26.402ZM11.0582 26.402V25.402H10.0582V26.402H11.0582ZM11.0582 58V59H12.0582V58H11.0582ZM4.79403 58H3.79403V59H4.79403V58ZM4.79403 15.3636H12.7841V13.3636H4.79403V15.3636ZM11.8587 14.7426L25.7507 48.6631L27.6015 47.9051L13.7095 13.9846L11.8587 14.7426ZM26.6761 49.2841H27.1875V47.2841H26.6761V49.2841ZM28.1129 48.6631L42.0049 14.7426L40.1541 13.9846L26.2621 47.9051L28.1129 48.6631ZM41.0795 15.3636H49.0696V13.3636H41.0795V15.3636ZM48.0696 14.3636V58H50.0696V14.3636H48.0696ZM49.0696 57H42.8054V59H49.0696V57ZM43.8054 58V26.4233H41.8054V58H43.8054ZM42.8054 25.4233H42.4006V27.4233H42.8054V25.4233ZM41.4748 26.0452L28.6055 57.558L30.457 58.3142L43.3263 26.8014L41.4748 26.0452ZM29.5312 56.9361H24.3324V58.9361H29.5312V56.9361ZM25.2583 57.5582L12.3889 26.0241L10.5372 26.7798L23.4065 58.3139L25.2583 57.5582ZM11.4631 25.402H11.0582V27.402H11.4631V25.402ZM10.0582 26.402V58H12.0582V26.402H10.0582ZM11.0582 57H4.79403V59H11.0582V57ZM5.79403 58V14.3636H3.79403V58H5.79403ZM59.5579 70.0384L59.754 69.0578L59.7454 69.0561L59.7368 69.0545L59.5579 70.0384ZM57.8107 69.5696L56.8513 69.2876L56.6044 70.1278L57.4046 70.4834L57.8107 69.5696ZM59.3448 64.3494L59.6039 63.3836L58.6607 63.1305L58.3854 64.0675L59.3448 64.3494ZM62.4556 64.7543L62.4088 63.7554L62.4088 63.7554L62.4556 64.7543ZM64.8633 63.7315L64.1943 62.9882L64.1869 62.995L64.8633 63.7315ZM66.7383 60.5994L67.6754 60.9486L67.6783 60.9404L66.7383 60.5994ZM67.5266 58.4261L68.4667 58.7671L68.5901 58.4269L68.4672 58.0864L67.5266 58.4261ZM55.5522 25.2727V24.2727H54.1278L54.6117 25.6124L55.5522 25.2727ZM62.3704 25.2727L63.321 24.9625L63.0959 24.2727H62.3704V25.2727ZM70.6587 50.6705L69.7081 50.9807L69.9332 51.6705H70.6587V50.6705ZM70.9996 50.6705V51.6705H71.7252L71.9503 50.9807L70.9996 50.6705ZM79.288 25.2727V24.2727H78.5624L78.3373 24.9625L79.288 25.2727ZM86.1275 25.2727L87.0673 25.6144L87.5551 24.2727H86.1275V25.2727ZM72.6403 62.3679L73.5792 62.7122L73.5801 62.7096L72.6403 62.3679ZM70.2539 66.6932L69.4804 66.0594L69.4767 66.064L70.2539 66.6932ZM66.8022 69.3778L66.3943 68.4648L66.3943 68.4648L66.8022 69.3778ZM62.1573 69.2727C61.2592 69.2727 60.4597 69.1989 59.754 69.0578L59.3618 71.0189C60.2186 71.1903 61.152 71.2727 62.1573 71.2727V69.2727ZM59.7368 69.0545C58.9775 68.9164 58.4894 68.7769 58.2169 68.6558L57.4046 70.4834C57.8991 70.7032 58.5758 70.8762 59.379 71.0222L59.7368 69.0545ZM58.7702 69.8516L60.3042 64.6314L58.3854 64.0675L56.8513 69.2876L58.7702 69.8516ZM59.0857 65.3153C60.3198 65.6464 61.463 65.8019 62.5024 65.7532L62.4088 63.7554C61.6301 63.7919 60.6994 63.6775 59.6039 63.3836L59.0857 65.3153ZM62.5024 65.7532C63.6552 65.6991 64.6782 65.2592 65.5397 64.4681L64.1869 62.995C63.6563 63.4823 63.0742 63.7242 62.4088 63.7554L62.5024 65.7532ZM65.5322 64.4748C66.4144 63.6809 67.1103 62.4653 67.6754 60.9485L65.8012 60.2503C65.2867 61.6313 64.7326 62.5038 64.1943 62.9882L65.5322 64.4748ZM67.6783 60.9404L68.4667 58.7671L66.5866 58.0851L65.7982 60.2584L67.6783 60.9404ZM68.4672 58.0864L56.4927 24.933L54.6117 25.6124L66.5861 58.7658L68.4672 58.0864ZM55.5522 26.2727H62.3704V24.2727H55.5522V26.2727ZM61.4197 25.583L69.7081 50.9807L71.6094 50.3602L63.321 24.9625L61.4197 25.583ZM70.6587 51.6705H70.9996V49.6705H70.6587V51.6705ZM71.9503 50.9807L80.2387 25.583L78.3373 24.9625L70.049 50.3602L71.9503 50.9807ZM79.288 26.2727H86.1275V24.2727H79.288V26.2727ZM85.1877 24.931L71.7005 62.0262L73.5801 62.7096L87.0673 25.6144L85.1877 24.931ZM71.7014 62.0236C71.1078 63.6427 70.3633 64.9818 69.4804 66.0594L71.0274 67.3269C72.0764 66.0466 72.9228 64.5022 73.5791 62.7122L71.7014 62.0236ZM69.4767 66.064C68.6047 67.1411 67.5786 67.9357 66.3943 68.4648L67.2101 70.2909C68.6963 69.6268 69.9713 68.6317 71.0312 67.3224L69.4767 66.064ZM66.3943 68.4648C65.2109 68.9936 63.8063 69.2727 62.1573 69.2727V71.2727C64.0311 71.2727 65.7231 70.9553 67.2101 70.2908L66.3943 68.4648Z" fill="black"/>
<path d="M96.794 58V14.3636H103.378V33.3267H125.132V14.3636H131.737V58H125.132V38.973H103.378V58H96.794ZM154.599 58.6605C151.531 58.6605 148.854 57.9574 146.567 56.5511C144.28 55.1449 142.504 53.1776 141.24 50.6491C139.976 48.1207 139.344 45.1662 139.344 41.7855C139.344 38.3906 139.976 35.4219 141.24 32.8793C142.504 30.3366 144.28 28.3622 146.567 26.956C148.854 25.5497 151.531 24.8466 154.599 24.8466C157.668 24.8466 160.345 25.5497 162.632 26.956C164.919 28.3622 166.695 30.3366 167.959 32.8793C169.223 35.4219 169.855 38.3906 169.855 41.7855C169.855 45.1662 169.223 48.1207 167.959 50.6491C166.695 53.1776 164.919 55.1449 162.632 56.5511C160.345 57.9574 157.668 58.6605 154.599 58.6605ZM154.621 53.3125C156.609 53.3125 158.257 52.7869 159.564 51.7358C160.871 50.6847 161.837 49.2855 162.462 47.5384C163.101 45.7912 163.42 43.8665 163.42 41.7642C163.42 39.6761 163.101 37.7585 162.462 36.0114C161.837 34.25 160.871 32.8366 159.564 31.7713C158.257 30.706 156.609 30.1733 154.621 30.1733C152.618 30.1733 150.956 30.706 149.635 31.7713C148.328 32.8366 147.355 34.25 146.716 36.0114C146.091 37.7585 145.778 39.6761 145.778 41.7642C145.778 43.8665 146.091 45.7912 146.716 47.5384C147.355 49.2855 148.328 50.6847 149.635 51.7358C150.956 52.7869 152.618 53.3125 154.621 53.3125ZM176.966 58V25.2727H183.081V30.5994H183.486C184.168 28.7955 185.283 27.3892 186.831 26.3807C188.38 25.358 190.233 24.8466 192.392 24.8466C194.58 24.8466 196.412 25.358 197.89 26.3807C199.381 27.4034 200.482 28.8097 201.192 30.5994H201.533C202.314 28.8523 203.557 27.4602 205.262 26.4233C206.966 25.3722 208.998 24.8466 211.355 24.8466C214.324 24.8466 216.746 25.777 218.621 27.6378C220.51 29.4986 221.455 32.304 221.455 36.054V58H215.084V36.6506C215.084 34.4347 214.48 32.8295 213.273 31.8352C212.066 30.8409 210.624 30.3438 208.948 30.3438C206.874 30.3438 205.262 30.983 204.111 32.2614C202.961 33.5256 202.385 35.152 202.385 37.1406V58H196.036V36.2457C196.036 34.4702 195.482 33.0426 194.374 31.9631C193.266 30.8835 191.824 30.3438 190.049 30.3438C188.841 30.3438 187.726 30.6634 186.703 31.3026C185.695 31.9276 184.878 32.8011 184.253 33.9233C183.642 35.0455 183.337 36.3452 183.337 37.8224V58H176.966ZM244.099 58.6605C240.874 58.6605 238.097 57.9716 235.768 56.5938C233.452 55.2017 231.663 53.2486 230.398 50.7344C229.148 48.206 228.523 45.2443 228.523 41.8494C228.523 38.4972 229.148 35.5426 230.398 32.9858C231.663 30.429 233.424 28.4332 235.683 26.9986C237.955 25.5639 240.612 24.8466 243.651 24.8466C245.498 24.8466 247.288 25.152 249.021 25.7628C250.754 26.3736 252.309 27.3324 253.687 28.6392C255.065 29.946 256.151 31.6435 256.947 33.7315C257.742 35.8054 258.14 38.3267 258.14 41.2955V43.554H232.124V38.7812H251.897C251.897 37.1051 251.556 35.6207 250.874 34.3281C250.192 33.0213 249.234 31.9915 247.998 31.2386C246.776 30.4858 245.342 30.1094 243.694 30.1094C241.904 30.1094 240.342 30.5497 239.006 31.4304C237.685 32.2969 236.663 33.4332 235.938 34.8395C235.228 36.2315 234.873 37.7443 234.873 39.3778V43.1065C234.873 45.294 235.256 47.1548 236.023 48.6889C236.805 50.223 237.891 51.3949 239.283 52.2045C240.675 53 242.302 53.3977 244.163 53.3977C245.37 53.3977 246.471 53.2273 247.465 52.8864C248.46 52.5312 249.319 52.0057 250.043 51.3097C250.768 50.6136 251.322 49.7543 251.705 48.7315L257.735 49.8182C257.252 51.5937 256.386 53.1491 255.136 54.4844C253.9 55.8054 252.344 56.8352 250.469 57.5739C248.609 58.2983 246.485 58.6605 244.099 58.6605Z" fill="black"/>
</svg>
