<svg width="29" height="29" viewBox="0 0 29 29" fill="none" xmlns="http://www.w3.org/2000/svg">
<path d="M14.5 2.41667C11.9529 2.41654 9.50869 3.42171 7.69859 5.21371C5.88849 7.0057 4.85881 9.4397 4.83334 11.9867C4.83334 18.6083 13.3521 25.9792 13.7146 26.2933C13.9335 26.4805 14.212 26.5834 14.5 26.5834C14.788 26.5834 15.0666 26.4805 15.2854 26.2933C15.7083 25.9792 24.1667 18.6083 24.1667 11.9867C24.1412 9.4397 23.1115 7.0057 21.3014 5.21371C19.4913 3.42171 17.0471 2.41654 14.5 2.41667ZM14.5 23.7438C12.4821 21.8225 7.25 16.4938 7.25 11.9867C7.25 10.0638 8.01384 8.21978 9.37348 6.86014C10.7331 5.5005 12.5772 4.73667 14.5 4.73667C16.4228 4.73667 18.2669 5.5005 19.6265 6.86014C20.9862 8.21978 21.75 10.0638 21.75 11.9867C21.75 16.4575 16.5179 21.8225 14.5 23.7438Z" fill="#838383"/>
<path d="M14.5 7.25C13.6635 7.25 12.8459 7.49803 12.1504 7.96274C11.4549 8.42745 10.9128 9.08795 10.5927 9.86073C10.2727 10.6335 10.1889 11.4839 10.3521 12.3042C10.5153 13.1246 10.9181 13.8782 11.5095 14.4696C12.101 15.0611 12.8545 15.4639 13.6749 15.6271C14.4953 15.7903 15.3456 15.7065 16.1184 15.3864C16.8912 15.0663 17.5517 14.5242 18.0164 13.8288C18.4811 13.1333 18.7292 12.3156 18.7292 11.4792C18.7292 10.3575 18.2836 9.28182 17.4905 8.48869C16.6973 7.69557 15.6216 7.25 14.5 7.25ZM14.5 13.2917C14.1415 13.2917 13.7911 13.1854 13.493 12.9862C13.195 12.787 12.9626 12.504 12.8255 12.1728C12.6883 11.8416 12.6524 11.4772 12.7223 11.1256C12.7923 10.774 12.9649 10.451 13.2184 10.1975C13.4718 9.94405 13.7948 9.77143 14.1464 9.70149C14.498 9.63156 14.8624 9.66745 15.1936 9.80463C15.5248 9.94182 15.8079 10.1741 16.007 10.4722C16.2062 10.7703 16.3125 11.1207 16.3125 11.4792C16.3125 11.9599 16.1215 12.4209 15.7816 12.7608C15.4417 13.1007 14.9807 13.2917 14.5 13.2917Z" fill="#838383"/>
</svg>
