<svg width="36" height="46" viewBox="0 0 36 46" fill="none" xmlns="http://www.w3.org/2000/svg">
<path d="M17.9998 0.500015C13.2569 0.499778 8.70558 2.37147 5.33505 5.7083C1.96452 9.04512 0.0471846 13.5774 -0.000244141 18.32C-0.000244141 30.65 15.8623 44.375 16.5373 44.96C16.9448 45.3086 17.4635 45.5002 17.9998 45.5002C18.536 45.5002 19.0547 45.3086 19.4623 44.96C20.2498 44.375 35.9998 30.65 35.9998 18.32C35.9523 13.5774 34.035 9.04512 30.6645 5.7083C27.2939 2.37147 22.7426 0.499778 17.9998 0.500015ZM17.9998 40.2125C14.2423 36.635 4.49976 26.7125 4.49976 18.32C4.49976 14.7396 5.92207 11.3058 8.45381 8.77407C10.9856 6.24233 14.4193 4.82002 17.9998 4.82002C21.5802 4.82002 25.014 6.24233 27.5457 8.77407C30.0774 11.3058 31.4998 14.7396 31.4998 18.32C31.4998 26.645 21.7573 36.635 17.9998 40.2125Z" fill="#838383"/>
<path d="M17.9998 9.5C16.4422 9.5 14.9197 9.96186 13.6246 10.8272C12.3296 11.6925 11.3202 12.9224 10.7242 14.3614C10.1282 15.8003 9.97222 17.3837 10.2761 18.9113C10.5799 20.4389 11.33 21.8421 12.4313 22.9435C13.5326 24.0448 14.9358 24.7948 16.4634 25.0987C17.991 25.4025 19.5744 25.2466 21.0134 24.6506C22.4524 24.0545 23.6823 23.0452 24.5476 21.7501C25.4129 20.4551 25.8748 18.9325 25.8748 17.375C25.8748 15.2864 25.0451 13.2834 23.5682 11.8065C22.0914 10.3297 20.0883 9.5 17.9998 9.5ZM17.9998 20.75C17.3322 20.75 16.6797 20.5521 16.1247 20.1812C15.5697 19.8104 15.1371 19.2833 14.8817 18.6666C14.6262 18.0499 14.5594 17.3713 14.6896 16.7166C14.8198 16.0619 15.1413 15.4605 15.6133 14.9885C16.0853 14.5165 16.6866 14.1951 17.3413 14.0648C17.996 13.9346 18.6746 14.0015 19.2913 14.2569C19.908 14.5124 20.4351 14.9449 20.806 15.5C21.1768 16.055 21.3748 16.7075 21.3748 17.375C21.3748 18.2701 21.0192 19.1286 20.3862 19.7615C19.7533 20.3944 18.8949 20.75 17.9998 20.75Z" fill="#838383"/>
</svg>
