<svg width="48" height="46" viewBox="0 0 48 46" fill="none" xmlns="http://www.w3.org/2000/svg">
<path d="M37.4061 44.4897L37.3683 44.488L37.3304 44.4881C37.189 44.4887 37.049 44.4556 36.9219 44.391L24.663 37.9336L23.9639 37.5654L23.2649 37.9336L10.9986 44.3948L10.9962 44.3961C10.847 44.475 10.6795 44.5099 10.5125 44.4976C10.3454 44.4852 10.1844 44.4259 10.0477 44.3253C9.91089 44.2247 9.80372 44.0866 9.73956 43.9258C9.67537 43.765 9.65718 43.5888 9.68741 43.4176L9.68742 43.4176L12.0926 29.7935L12.2303 29.0134L11.6636 28.4598L1.7635 18.7891C1.6494 18.6725 1.56754 18.5264 1.52755 18.3654C1.48803 18.2064 1.49111 18.0397 1.53627 17.8825C1.59056 17.7232 1.68661 17.5829 1.81303 17.4761C1.94288 17.3664 2.09969 17.2963 2.26545 17.2726L2.27054 17.2719L15.9798 15.2634L16.7645 15.1484L17.1114 14.4352L23.1483 2.02109L23.1509 2.01569C23.2261 1.85942 23.3429 1.72896 23.4867 1.63825C23.6305 1.54761 23.7958 1.5 23.9639 1.5C24.132 1.5 24.2974 1.54761 24.4411 1.63825C24.585 1.72896 24.7018 1.85942 24.777 2.01569L24.7801 2.02208L24.7832 2.02844L30.8923 14.4183L31.2407 15.125L32.0202 15.2392L45.7295 17.2477L45.7345 17.2484C45.9003 17.2721 46.0571 17.3422 46.187 17.4519C46.3134 17.5587 46.4095 17.699 46.4637 17.8583C46.5089 18.0155 46.512 18.1822 46.4725 18.3412C46.4325 18.5022 46.3506 18.6483 46.2365 18.7649L36.3364 28.4356L35.7697 28.9892L35.9074 29.7693L38.3126 43.3934L38.3142 43.4025L38.3159 43.4116C38.3489 43.5858 38.3315 43.7657 38.2663 43.9299C38.202 44.0915 38.0944 44.2302 37.957 44.3311C37.7945 44.4435 37.6011 44.4988 37.4061 44.4897Z" stroke="#F8D456" stroke-width="3"/>
</svg>
