<svg width="44" height="39" viewBox="0 0 44 39" fill="none" xmlns="http://www.w3.org/2000/svg">
<path d="M43.758 19.7311C43.7237 18.6279 43.2578 17.5822 42.4605 16.8189L26.0771 0.858539C25.8313 0.613399 25.5396 0.419171 25.2187 0.286987C24.8977 0.154803 24.5538 0.0872624 24.2067 0.0882367H21.2827L40.4943 18.8451L40.5024 18.8529C40.7702 19.1068 40.9273 19.456 40.9395 19.8248C40.9518 20.1937 40.8182 20.5525 40.5678 20.8236L26.7692 36.118L28.7061 38.0022L42.6528 22.7271C43.4001 21.9122 43.797 20.8361 43.758 19.7311Z" fill="#838383"/>
<path d="M36.2521 20.7254C36.3868 20.3547 36.4149 19.9538 36.3334 19.568C36.2518 19.1822 36.0638 18.8269 35.7906 18.5425C35.7813 18.5327 35.773 18.5221 35.7636 18.5125L18.3781 0.835247L18.3698 0.826954C18.1083 0.563959 17.7971 0.355455 17.4545 0.213509C17.1118 0.0715643 16.7444 -0.00100212 16.3734 1.04524e-05H3.89907C2.86533 0.00117802 1.87426 0.412346 1.1433 1.14331C0.412336 1.87427 0.00116757 2.86534 0 3.89908V16.3478C0.000629899 16.7324 0.0795266 17.1128 0.231886 17.4659C0.384245 17.819 0.606879 18.1374 0.886231 18.4017L19.4419 36.0646L19.4487 36.071C19.84 36.4408 20.3581 36.6463 20.8964 36.6452C20.9227 36.6452 20.9492 36.6447 20.9758 36.6437C21.1782 36.6364 21.3785 36.6002 21.5706 36.5363C21.9101 36.4231 22.2152 36.2252 22.457 35.9613L35.8183 21.4375C36.0086 21.2312 36.1561 20.9891 36.2521 20.7254ZM20.8655 33.5216L2.83003 16.3539L2.82324 16.3475V3.89908C2.82356 3.61385 2.93701 3.3404 3.1387 3.13871C3.34039 2.93702 3.61384 2.82357 3.89907 2.82325H16.3734L33.2863 20.0201L20.8655 33.5216Z" fill="#838383"/>
<path d="M10.9401 5.62451C10.0327 5.62451 9.14569 5.89358 8.39123 6.39769C7.63678 6.9018 7.04876 7.61831 6.70152 8.45661C6.35428 9.29491 6.26343 10.2174 6.44045 11.1073C6.61747 11.9972 7.05441 12.8147 7.69602 13.4563C8.33763 14.0979 9.15509 14.5349 10.045 14.7119C10.935 14.8889 11.8574 14.798 12.6957 14.4508C13.534 14.1036 14.2505 13.5155 14.7546 12.7611C15.2587 12.0066 15.5278 11.1196 15.5278 10.2123C15.5264 8.99594 15.0426 7.82983 14.1826 6.96976C13.3225 6.10968 12.1564 5.62589 10.9401 5.62451ZM10.9401 11.9768C10.5911 11.9768 10.2499 11.8733 9.95974 11.6794C9.66956 11.4855 9.4434 11.2099 9.30985 10.8875C9.1763 10.5651 9.14135 10.2103 9.20944 9.86803C9.27752 9.52574 9.44558 9.21134 9.69235 8.96456C9.93912 8.71779 10.2535 8.54974 10.5958 8.48165C10.9381 8.41357 11.2929 8.44851 11.6153 8.58206C11.9377 8.71562 12.2133 8.94178 12.4072 9.23195C12.6011 9.52213 12.7046 9.86328 12.7046 10.2123C12.704 10.6801 12.518 11.1286 12.1872 11.4594C11.8564 11.7902 11.4079 11.9763 10.9401 11.9768Z" fill="#838383"/>
</svg>
